<svg width="183" height="118" viewBox="0 0 183 118" fill="none" xmlns="http://www.w3.org/2000/svg">
<rect width="183" height="118" fill="#F8F8F8"/>
<path d="M62.4862 91.9906C49.367 91.9906 15.4587 74.704 9 47.5076V104H174V23.011C168.45 22.8443 154.523 24.5108 143.22 32.5097C131.917 40.5086 111.936 59.1727 103.358 67.5049C89.9021 78.6701 75.6055 91.9906 62.4862 91.9906Z" fill="url(#paint0_linear_447_2)" fill-opacity="0.74"/>
<line x1="9.00301" y1="103.5" x2="174.003" y2="104.494" stroke="black"/>
<path d="M174 104V109" stroke="black"/>
<path d="M119 104V109" stroke="black"/>
<path d="M63 104V109" stroke="black"/>
<path d="M9 104V109" stroke="black"/>
<path d="M9 48.0847C22.5 82.5847 49.8333 93.2514 63 93.0847C76.1667 92.918 107 65.5847 112.5 60.0847C118.51 54.0743 151.5 19.0842 173 24.5842" stroke="#8A64FF" stroke-width="1.5"/>
<defs>
<linearGradient id="paint0_linear_447_2" x1="91.5" y1="23" x2="91.5" y2="104" gradientUnits="userSpaceOnUse">
<stop stop-color="#8A64FF"/>
<stop offset="1" stop-color="#CF77FF"/>
</linearGradient>
</defs>
</svg>
