<?xml version="1.0" encoding="UTF-8"?>
<!DOCTYPE svg PUBLIC "-//W3C//DTD SVG 1.1//EN" "http://www.w3.org/Graphics/SVG/1.1/DTD/svg11.dtd">
<svg xmlns="http://www.w3.org/2000/svg" version="1.1" width="483px" height="310px" style="shape-rendering:geometricPrecision; text-rendering:geometricPrecision; image-rendering:optimizeQuality; fill-rule:evenodd; clip-rule:evenodd" xmlns:xlink="http://www.w3.org/1999/xlink">
<g><path style="opacity:1" fill="#fef8f2" d="M -0.5,-0.5 C 160.5,-0.5 321.5,-0.5 482.5,-0.5C 482.5,102.833 482.5,206.167 482.5,309.5C 321.5,309.5 160.5,309.5 -0.5,309.5C -0.5,206.167 -0.5,102.833 -0.5,-0.5 Z"/></g>
<g><path style="opacity:1" fill="#8becfb" d="M 436.5,60.5 C 442.842,60.3338 449.175,60.5005 455.5,61C 456.308,61.3076 456.975,61.8076 457.5,62.5C 456.754,63.7362 456.421,65.0695 456.5,66.5C 441.287,63.8996 426.62,65.7329 412.5,72C 387.001,84.1889 363.668,99.5222 342.5,118C 324.226,134.272 306.56,151.272 289.5,169C 262.475,193.671 233.475,215.671 202.5,235C 192.504,240.998 181.837,245.332 170.5,248C 155.718,248.592 141.385,246.259 127.5,241C 89.3425,225.171 59.5092,199.671 38,164.5C 32.5334,154.564 27.3667,144.564 22.5,134.5C 22.2761,132.213 21.6094,130.047 20.5,128C 21.7365,125.752 23.4031,125.252 25.5,126.5C 41.3017,168.638 68.3017,201.472 106.5,225C 121.181,233.449 136.848,239.115 153.5,242C 165.053,243.815 176.053,242.149 186.5,237C 194.153,233.508 201.487,229.508 208.5,225C 251.74,195.777 291.407,162.11 327.5,124C 352.44,101.065 380.107,82.0652 410.5,67C 418.952,63.8869 427.619,61.7202 436.5,60.5 Z"/></g>
<g><path style="opacity:1" fill="#d7f5fb" d="M 436.5,60.5 C 443.982,59.508 451.648,59.1746 459.5,59.5C 459.5,131.167 459.5,202.833 459.5,274.5C 313.834,273.773 168.167,273.106 22.5,272.5C 22.5,226.5 22.5,180.5 22.5,134.5C 27.3667,144.564 32.5334,154.564 38,164.5C 59.5092,199.671 89.3425,225.171 127.5,241C 141.385,246.259 155.718,248.592 170.5,248C 181.837,245.332 192.504,240.998 202.5,235C 233.475,215.671 262.475,193.671 289.5,169C 306.56,151.272 324.226,134.272 342.5,118C 363.668,99.5222 387.001,84.1889 412.5,72C 426.62,65.7329 441.287,63.8996 456.5,66.5C 456.421,65.0695 456.754,63.7362 457.5,62.5C 456.975,61.8076 456.308,61.3076 455.5,61C 449.175,60.5005 442.842,60.3338 436.5,60.5 Z"/></g>
<g><path style="opacity:1" fill="#191818" d="M 22.5,272.5 C 168.167,273.106 313.834,273.773 459.5,274.5C 460.811,278.683 460.811,283.016 459.5,287.5C 458.511,283.893 458.177,280.226 458.5,276.5C 410.833,276.5 363.167,276.5 315.5,276.5C 315.5,280.167 315.5,283.833 315.5,287.5C 314.5,287.5 313.5,287.5 312.5,287.5C 312.5,283.833 312.5,280.167 312.5,276.5C 263.831,276.394 215.165,276.061 166.5,275.5C 165.833,291.5 165.167,291.5 164.5,275.5C 117.496,275.621 70.4957,275.288 23.5,274.5C 23.8256,278.884 23.4922,283.217 22.5,287.5C 21.272,282.481 21.272,277.481 22.5,272.5 Z"/></g>
</svg>
