<?xml version="1.0" encoding="UTF-8"?>
<!DOCTYPE svg PUBLIC "-//W3C//DTD SVG 1.1//EN" "http://www.w3.org/Graphics/SVG/1.1/DTD/svg11.dtd">
<svg xmlns="http://www.w3.org/2000/svg" version="1.1" width="489px" height="311px" style="shape-rendering:geometricPrecision; text-rendering:geometricPrecision; image-rendering:optimizeQuality; fill-rule:evenodd; clip-rule:evenodd" xmlns:xlink="http://www.w3.org/1999/xlink">
<g><path style="opacity:1" fill="#fef8f2" d="M -0.5,-0.5 C 162.5,-0.5 325.5,-0.5 488.5,-0.5C 488.5,103.167 488.5,206.833 488.5,310.5C 325.5,310.5 162.5,310.5 -0.5,310.5C -0.5,206.833 -0.5,103.167 -0.5,-0.5 Z"/></g>
<g><path style="opacity:1" fill="#96fbf0" d="M 400.5,51.5 C 414.99,52.496 429.657,52.8293 444.5,52.5C 444.5,76.5 444.5,100.5 444.5,124.5C 444.264,175.167 443.931,225.834 443.5,276.5C 414.833,276.5 386.167,276.5 357.5,276.5C 357.527,201.498 357.861,126.498 358.5,51.5C 372.5,51.5 386.5,51.5 400.5,51.5 Z"/></g>
<g><path style="opacity:1" fill="#96fbf0" d="M 126.5,274.5 C 97.5,274.5 68.5,274.5 39.5,274.5C 39.5625,206.498 39.8958,138.498 40.5,70.5C 69.5,70.5 98.5,70.5 127.5,70.5C 126.658,138.496 126.324,206.496 126.5,274.5 Z"/></g>
<g><path style="opacity:1" fill="#c5faf2" d="M 400.5,51.5 C 415.5,51.5 430.5,51.5 445.5,51.5C 445.831,76.0057 445.498,100.339 444.5,124.5C 444.5,100.5 444.5,76.5 444.5,52.5C 429.657,52.8293 414.99,52.496 400.5,51.5 Z"/></g>
<g><path style="opacity:1" fill="#96fbf1" d="M 262.5,275.5 C 258.833,275.5 255.167,275.5 251.5,275.5C 251.304,216.829 251.637,158.162 252.5,99.5C 281.198,99.1912 309.865,99.5245 338.5,100.5C 338.389,158.835 338.056,217.168 337.5,275.5C 312.5,275.5 287.5,275.5 262.5,275.5 Z"/></g>
<g><path style="opacity:1" fill="#d6f9f2" d="M 145.5,195.5 C 174.329,194.502 203.329,194.169 232.5,194.5C 232.5,221.5 232.5,248.5 232.5,275.5C 232.167,275.5 231.833,275.5 231.5,275.5C 231.5,248.833 231.5,222.167 231.5,195.5C 202.833,195.5 174.167,195.5 145.5,195.5 Z"/></g>
<g><path style="opacity:1" fill="#95fbf0" d="M 145.5,195.5 C 174.167,195.5 202.833,195.5 231.5,195.5C 231.5,222.167 231.5,248.833 231.5,275.5C 202.83,275.397 174.163,275.064 145.5,274.5C 145.5,248.167 145.5,221.833 145.5,195.5 Z"/></g>
<g><path style="opacity:1" fill="#1b1d1d" d="M 39.5,274.5 C 68.5,274.5 97.5,274.5 126.5,274.5C 132.833,274.5 139.167,274.5 145.5,274.5C 174.163,275.064 202.83,275.397 231.5,275.5C 231.833,275.5 232.167,275.5 232.5,275.5C 238.833,275.5 245.167,275.5 251.5,275.5C 255.167,275.5 258.833,275.5 262.5,275.5C 293.996,276.498 325.662,276.832 357.5,276.5C 386.167,276.5 414.833,276.5 443.5,276.5C 449.167,276.5 454.833,276.5 460.5,276.5C 460.5,277.5 460.5,278.5 460.5,279.5C 441.5,279.5 422.5,279.5 403.5,279.5C 403.5,283.167 403.5,286.833 403.5,290.5C 402.5,290.5 401.5,290.5 400.5,290.5C 400.5,286.833 400.5,283.167 400.5,279.5C 366.16,279.642 331.827,279.308 297.5,278.5C 297.5,282.5 297.5,286.5 297.5,290.5C 296.5,290.5 295.5,290.5 294.5,290.5C 294.5,286.5 294.5,282.5 294.5,278.5C 275.5,278.5 256.5,278.5 237.5,278.5C 221.342,277.504 205.009,277.17 188.5,277.5C 187.833,293.5 187.167,293.5 186.5,277.5C 175.833,277.5 165.167,277.5 154.5,277.5C 131.5,277.5 108.5,277.5 85.5,277.5C 85.5,281.5 85.5,285.5 85.5,289.5C 83.8693,285.768 82.8693,281.768 82.5,277.5C 62.8333,277.5 43.1667,277.5 23.5,277.5C 23.5,276.5 23.5,275.5 23.5,274.5C 28.8333,274.5 34.1667,274.5 39.5,274.5 Z"/></g>
<g><path style="opacity:1" fill="#474544" d="M 82.5,277.5 C 82.8693,281.768 83.8693,285.768 85.5,289.5C 84.791,290.404 83.791,290.737 82.5,290.5C 82.5,286.167 82.5,281.833 82.5,277.5 Z"/></g>
<g><path style="opacity:1" fill="#8c928e" d="M 154.5,277.5 C 165.167,277.5 175.833,277.5 186.5,277.5C 187.167,293.5 187.833,293.5 188.5,277.5C 205.009,277.17 221.342,277.504 237.5,278.5C 221.5,278.5 205.5,278.5 189.5,278.5C 189.5,282.5 189.5,286.5 189.5,290.5C 188.167,290.5 186.833,290.5 185.5,290.5C 185.5,286.5 185.5,282.5 185.5,278.5C 174.986,278.828 164.653,278.494 154.5,277.5 Z"/></g>
</svg>
