<svg width="185" height="118" viewBox="0 0 185 118" fill="none" xmlns="http://www.w3.org/2000/svg">
<rect width="185" height="118" fill="#FFF9F3"/>
<rect x="2" width="183" height="118" fill="#F8F8F8"/>
<rect width="66.6915" height="32.6718" transform="matrix(-0.00767103 0.999971 -0.999974 -0.00719562 48.2837 38.3168)" fill="url(#paint0_linear_447_6)"/>
<rect width="24.7343" height="32.6718" transform="matrix(-0.00767103 0.999971 -0.999974 -0.00719562 86.8613 80.2729)" fill="url(#paint1_linear_447_6)"/>
<rect width="50.2078" height="32.6718" transform="matrix(-0.00767103 0.999971 -0.999974 -0.00719562 128.056 54.8)" fill="url(#paint2_linear_447_6)"/>
<rect width="77.2054" height="32.6718" transform="matrix(-0.00767103 0.999971 -0.999974 -0.00719562 168.263 27.8032)" fill="url(#paint3_linear_447_6)"/>
<line x1="9.00301" y1="104.5" x2="174.003" y2="105.494" stroke="black"/>
<path d="M152 105V110" stroke="black"/>
<path d="M112 105V110" stroke="black"/>
<path d="M71 105V110" stroke="black"/>
<path d="M32 105V110" stroke="black"/>
<defs>
<linearGradient id="paint0_linear_447_6" x1="1.70693" y1="31.3542" x2="67.4552" y2="8.37126" gradientUnits="userSpaceOnUse">
<stop stop-color="#8A64FF"/>
<stop offset="1" stop-color="#CF77FF"/>
</linearGradient>
<linearGradient id="paint1_linear_447_6" x1="0.633059" y1="31.3542" x2="27.5448" y2="27.8653" gradientUnits="userSpaceOnUse">
<stop stop-color="#8A64FF"/>
<stop offset="1" stop-color="#CF77FF"/>
</linearGradient>
<linearGradient id="paint2_linear_447_6" x1="1.28504" y1="31.3542" x2="53.2333" y2="17.6834" gradientUnits="userSpaceOnUse">
<stop stop-color="#8A64FF"/>
<stop offset="1" stop-color="#CF77FF"/>
</linearGradient>
<linearGradient id="paint3_linear_447_6" x1="1.97602" y1="31.3542" x2="75.371" y2="1.65362" gradientUnits="userSpaceOnUse">
<stop stop-color="#8A64FF"/>
<stop offset="1" stop-color="#CF77FF"/>
</linearGradient>
</defs>
</svg>
