<svg width="183" height="118" viewBox="0 0 183 118" fill="none" xmlns="http://www.w3.org/2000/svg">
<rect width="183" height="118" fill="#F8F8F8"/>
<path d="M9 47.2279C26.5862 96.6489 71.5862 104.556 97.4483 73.9152C105.374 64.5252 117.606 52.5148 137.276 39.8147C156.945 27.1146 159.517 26.9653 174 24" stroke="url(#paint0_linear_447_4)" stroke-opacity="0.45" stroke-width="2"/>
<line x1="9.00301" y1="104.5" x2="174.003" y2="105.494" stroke="black"/>
<path d="M174 105V110" stroke="black"/>
<path d="M119 105V110" stroke="black"/>
<path d="M63 105V110" stroke="black"/>
<path d="M9 105V110" stroke="black"/>
<circle cx="8.5" cy="46.5" r="3.5" fill="#DACEFF"/>
<circle cx="8.5" cy="46.5" r="2.5" stroke="#8A64FF" stroke-opacity="0.78" stroke-width="2"/>
<circle cx="62.5" cy="91.5" r="3.5" fill="#DACEFF"/>
<circle cx="62.5" cy="91.5" r="2.5" stroke="#8A64FF" stroke-opacity="0.78" stroke-width="2"/>
<circle cx="118.5" cy="53.5" r="3.5" fill="#DACEFF"/>
<circle cx="118.5" cy="53.5" r="2.5" stroke="#8A64FF" stroke-opacity="0.78" stroke-width="2"/>
<circle cx="173.5" cy="23.5" r="3.5" fill="#DACEFF"/>
<circle cx="173.5" cy="23.5" r="2.5" stroke="#8A64FF" stroke-opacity="0.78" stroke-width="2"/>
<defs>
<linearGradient id="paint0_linear_447_4" x1="13" y1="114.5" x2="177.5" y2="24" gradientUnits="userSpaceOnUse">
<stop stop-color="#612EFF"/>
<stop offset="0.785979" stop-color="#A54DFF"/>
<stop offset="1" stop-color="#C65CFF"/>
</linearGradient>
</defs>
</svg>
