<?xml version="1.0" encoding="UTF-8"?>
<!DOCTYPE svg PUBLIC "-//W3C//DTD SVG 1.1//EN" "http://www.w3.org/Graphics/SVG/1.1/DTD/svg11.dtd">
<svg xmlns="http://www.w3.org/2000/svg" version="1.1" width="484px" height="309px" style="shape-rendering:geometricPrecision; text-rendering:geometricPrecision; image-rendering:optimizeQuality; fill-rule:evenodd; clip-rule:evenodd" xmlns:xlink="http://www.w3.org/1999/xlink">
<g><path style="opacity:1" fill="#fef8f2" d="M -0.5,-0.5 C 160.833,-0.5 322.167,-0.5 483.5,-0.5C 483.5,102.5 483.5,205.5 483.5,308.5C 322.167,308.5 160.833,308.5 -0.5,308.5C -0.5,205.5 -0.5,102.5 -0.5,-0.5 Z"/></g>
<g><path style="opacity:1" fill="#9cfcf2" d="M 455.5,48.5 C 467.359,48.231 472.192,53.8976 470,65.5C 466.638,71.8418 461.472,74.0084 454.5,72C 452.223,70.0415 449.723,68.5415 447,67.5C 435.766,69.3495 424.933,72.5162 414.5,77C 382.246,93.2768 352.246,112.777 324.5,135.5C 326.111,148.383 320.444,153.55 307.5,151C 307,150.5 306.5,150 306,149.5C 287.631,164.868 270.964,181.868 256,200.5C 234.572,224.135 208.072,238.802 176.5,244.5C 173.357,251.571 168.023,254.071 160.5,252C 157.5,250.333 155.167,248 153.5,245C 117.483,240.742 87.3161,225.242 63,198.5C 46.0816,179.342 33.2483,157.675 24.5,133.5C 12.5164,133.024 8.01642,127.024 11,115.5C 16.9245,108.426 23.4245,107.759 30.5,113.5C 34.6073,119.839 34.274,126.006 29.5,132C 42.4371,168.566 64.7705,197.899 96.5,220C 113.865,231.289 132.865,237.455 153.5,238.5C 154.132,233.695 156.799,230.528 161.5,229C 169.052,228.196 174.219,231.363 177,238.5C 200.623,234.437 221.456,224.604 239.5,209C 251.035,197.133 262.202,184.967 273,172.5C 282.35,163.649 291.85,154.982 301.5,146.5C 301.619,142.952 301.785,139.285 302,135.5C 306.551,128.26 312.718,126.594 320.5,130.5C 344.214,112.628 368.88,96.1278 394.5,81C 410.762,71.6909 428.095,65.3576 446.5,62C 446.649,55.5207 449.649,51.0207 455.5,48.5 Z"/></g>
<g><path style="opacity:1" fill="#fbfffe" d="M 18.5,115.5 C 24.0284,114.069 27.3617,116.069 28.5,121.5C 26.2596,128.634 22.2596,129.967 16.5,125.5C 14.8097,121.631 15.4764,118.298 18.5,115.5 Z"/></g>
<g><path style="opacity:1" fill="#fcfffe" d="M 455.5,54.5 C 462.777,53.2787 465.944,56.2787 465,63.5C 461.088,68.7006 457.088,68.7006 453,63.5C 451.927,59.9003 452.76,56.9003 455.5,54.5 Z"/></g>
<g><path style="opacity:1" fill="#fcfffe" d="M 310.5,133.5 C 317.771,133.036 320.604,136.369 319,143.5C 315.685,147.105 312.018,147.439 308,144.5C 307.399,142.863 306.899,141.197 306.5,139.5C 307.432,137.235 308.765,135.235 310.5,133.5 Z"/></g>
<g><path style="opacity:1" fill="#fcfffe" d="M 161.5,234.5 C 167.093,233.451 170.426,235.617 171.5,241C 169.435,247.118 165.601,248.618 160,245.5C 157.689,241.374 158.189,237.707 161.5,234.5 Z"/></g>
<g><path style="opacity:1" fill="#1d1c1c" d="M 167.5,289.5 C 165.869,285.768 164.869,281.768 164.5,277.5C 117.829,277.628 71.1622,277.294 24.5,276.5C 24.5,280.833 24.5,285.167 24.5,289.5C 23.5,289.5 22.5,289.5 21.5,289.5C 20.9743,284.588 21.6409,279.922 23.5,275.5C 43.5,275.167 63.5,274.833 83.5,274.5C 209.498,275.536 335.498,276.203 461.5,276.5C 461.5,280.833 461.5,285.167 461.5,289.5C 460.5,289.5 459.5,289.5 458.5,289.5C 458.5,286.167 458.5,282.833 458.5,279.5C 410.831,279.441 363.164,279.107 315.5,278.5C 314.833,293.167 314.167,293.167 313.5,278.5C 264.829,278.623 216.162,278.29 167.5,277.5C 167.5,281.5 167.5,285.5 167.5,289.5 Z"/></g>
<g><path style="opacity:1" fill="#6b6865" d="M 164.5,277.5 C 164.869,281.768 165.869,285.768 167.5,289.5C 166.791,290.404 165.791,290.737 164.5,290.5C 164.5,286.167 164.5,281.833 164.5,277.5 Z"/></g>
</svg>
