<svg width="500" height="500" version="1.1" xmlns="http://www.w3.org/2000/svg" desc="Created with imagetracer.js version 1.2.6" ><path fill="rgb(138,225,228)" stroke="rgb(138,225,228)" stroke-width="1" opacity="1" d="M 153.5 148 L 213.5 148 L 219 151.5 L 220 157.5 L 215.5 163 L 213.5 164 L 164 164 L 164 212.5 L 159.5 219 L 153.5 220 L 149 216.5 L 148 214.5 L 148 152.5 L 153.5 148 Z " /><path fill="rgb(138,225,228)" stroke="rgb(138,225,228)" stroke-width="1" opacity="1" d="M 285.5 148 L 345.5 148 L 350 151.5 L 351 153.5 L 351 214.5 L 347.5 219 L 341.5 220 L 336 215.5 L 335 212.5 L 335 164 L 285.5 164 L 280 159.5 L 279 153.5 L 282.5 149 L 285.5 148 Z " /><path fill="rgb(138,225,228)" stroke="rgb(138,225,228)" stroke-width="1" opacity="1" d="M 225.5 211 L 224.5 213 L 225.5 211 Z " /><path fill="rgb(138,225,228)" stroke="rgb(138,225,228)" stroke-width="1" opacity="1" d="M 280.5 215 L 300 215.5 L 280.5 216 L 280.5 215 Z " /><path fill="rgb(138,225,228)" stroke="rgb(138,225,228)" stroke-width="1" opacity="1" d="M 223.5 217 L 222.5 219 L 223.5 217 Z " /><path fill="rgb(138,225,228)" stroke="rgb(138,225,228)" stroke-width="1" opacity="1" d="M 206.5 223 L 205.5 225 L 206.5 223 Z " /><path fill="rgb(138,225,228)" stroke="rgb(138,225,228)" stroke-width="1" opacity="1" d="M 277.5 226 L 280 227.5 L 278.5 227 L 277.5 226 Z " /><path fill="rgb(138,225,228)" stroke="rgb(138,225,228)" stroke-width="1" opacity="1" d="M 285.5 227 L 286 241.5 L 285 242.5 L 285 256.5 L 286 259.5 L 285 259.5 L 285 257 L 280 256.5 L 280 242 L 285 242 L 285.5 227 Z " /><path fill="rgb(138,225,228)" stroke="rgb(138,225,228)" stroke-width="1" opacity="1" d="M 289.5 227 L 290 242 L 300 242 L 300 257 L 290.5 257 L 290 259.5 L 289 259.5 L 289.5 227 Z " /><path fill="rgb(138,225,228)" stroke="rgb(138,225,228)" stroke-width="1" opacity="1" d="M 183.5 235 L 187 235.5 L 183.5 236 L 183.5 235 Z " /><path fill="rgb(138,225,228)" stroke="rgb(138,225,228)" stroke-width="1" opacity="1" d="M 238.5 235 L 237.5 237 L 238.5 235 Z " /><path fill="rgb(138,225,228)" stroke="rgb(138,225,228)" stroke-width="1" opacity="1" d="M 254.5 237 Q 259.3 236.3 260 239.5 L 257.5 238 Q 253.5 238.8 254.5 237 Z " /><path fill="rgb(138,225,228)" stroke="rgb(138,225,228)" stroke-width="1" opacity="1" d="M 169.5 239 L 167 242.5 L 169.5 248 L 182.5 252 L 198 252 L 197.5 257 L 142.5 257 Q 136.5 255.5 138 246.5 L 143.5 242 L 166.5 242 L 169.5 239 Z " /><path fill="rgb(138,225,228)" stroke="rgb(138,225,228)" stroke-width="1" opacity="1" d="M 183.5 239 L 187 239.5 L 183.5 240 L 183.5 239 Z " /><path fill="rgb(138,225,228)" stroke="rgb(138,225,228)" stroke-width="1" opacity="1" d="M 195.5 239 L 198 239.5 L 195.5 240 L 195.5 239 Z " /><path fill="rgb(138,225,228)" stroke="rgb(138,225,228)" stroke-width="1" opacity="1" d="M 174.5 241 L 175.5 242 L 198 242 L 198 248 L 184.5 248 L 174.5 246 L 171 243.5 L 174.5 241 Z " /><path fill="rgb(138,225,228)" stroke="rgb(138,225,228)" stroke-width="1" opacity="1" d="M 251.5 241 L 252.5 242 L 260 242 Q 261.5 247.4 258.5 249 L 254 251.5 Q 253.4 254.3 259.5 253 Q 263.9 250.6 264 245 L 269 245 L 269 243.5 L 268.5 242 L 276 242 L 276 257 L 203.5 257 L 202 255.5 Q 199.8 248.8 206.5 251 L 210.5 250 Q 212 252.5 217.5 251 Q 222.3 248.5 222 242 L 231 242.5 Q 228.8 243.8 231.5 245 Q 235.3 244.3 236 246.5 L 238.5 252 L 246.5 253 L 250 250.5 L 251.5 241 Z " /><path fill="rgb(138,225,228)" stroke="rgb(138,225,228)" stroke-width="1" opacity="1" d="M 202 242 L 207 242 L 207 245.5 Q 205.8 248 202 247 L 202 242 Z " /><path fill="rgb(138,225,228)" stroke="rgb(138,225,228)" stroke-width="1" opacity="1" d="M 216 242 Q 219 240.8 218 244.5 L 217 247 L 215 246.5 L 216 242 Z " /><path fill="rgb(138,225,228)" stroke="rgb(138,225,228)" stroke-width="1" opacity="1" d="M 239 242 L 248 242 L 248 246.5 L 247 249 L 242.5 250 L 240 249 L 239 242 Z " /><path fill="rgb(138,225,228)" stroke="rgb(138,225,228)" stroke-width="1" opacity="1" d="M 304 242 L 355.5 242 L 361 246.5 Q 362.5 255.5 356.5 257 L 304.5 257 L 304 256.5 L 304 242 Z " /><path fill="rgb(138,225,228)" stroke="rgb(138,225,228)" stroke-width="1" opacity="1" d="M 211.5 261 L 212.5 263 L 211.5 261 Z " /><path fill="rgb(138,225,228)" stroke="rgb(138,225,228)" stroke-width="1" opacity="1" d="M 216.5 269 L 217.5 271 L 216.5 269 Z " /><path fill="rgb(138,225,228)" stroke="rgb(138,225,228)" stroke-width="1" opacity="1" d="M 154.5 279 Q 160.9 279.1 163 283.5 L 164 286.5 L 164 335 L 212.5 335 L 219 339.5 L 220 344.5 L 216.5 350 L 214.5 351 L 152.5 351 L 148 345.5 L 148 284.5 L 151.5 280 L 154.5 279 Z " /><path fill="rgb(138,225,228)" stroke="rgb(138,225,228)" stroke-width="1" opacity="1" d="M 341.5 279 Q 347.9 278.6 350 282.5 L 351 284.5 L 351 345.5 L 347.5 350 L 345.5 351 L 284.5 351 L 280 347.5 L 279 341.5 L 283.5 336 L 286.5 335 L 335 335 L 335 285.5 L 339.5 280 L 341.5 279 Z " /><path fill="rgb(138,225,228)" stroke="rgb(138,225,228)" stroke-width="1" opacity="1" d="M 195.5 291 L 201 291.5 L 195.5 292 L 195.5 291 Z " /><path fill="rgb(138,225,228)" stroke="rgb(138,225,228)" stroke-width="1" opacity="1" d="M 219.5 291 L 222 291.5 L 218.5 293 L 219.5 291 Z " /><path fill="rgb(138,225,228)" stroke="rgb(138,225,228)" stroke-width="1" opacity="1" d="M 236.5 291 L 239 291.5 L 236 292 L 235.5 294 L 235 292.5 L 236.5 291 Z " /><path fill="rgb(138,225,228)" stroke="rgb(138,225,228)" stroke-width="1" opacity="1" d="M 253.5 291 L 257 292.5 L 256.5 297 L 256 292 L 252 293.5 L 251.5 295 L 251 293.5 L 253.5 291 Z " /><path fill="rgb(138,225,228)" stroke="rgb(138,225,228)" stroke-width="1" opacity="1" d="M 264.5 291 L 266 292.5 L 266 315.5 L 264 316.5 L 265 315.5 L 265 292.5 L 264.5 291 Z " /><path fill="rgb(138,225,228)" stroke="rgb(138,225,228)" stroke-width="1" opacity="1" d="M 278.5 291 L 282 291.5 L 278.5 292 L 278.5 291 Z " /><path fill="rgb(138,225,228)" stroke="rgb(138,225,228)" stroke-width="1" opacity="1" d="M 308.5 291 L 308 292.5 L 307.5 295 L 307 292.5 L 308.5 291 Z " /><path fill="rgb(138,225,228)" stroke="rgb(138,225,228)" stroke-width="1" opacity="1" d="M 203.5 292 L 205.5 295 L 203.5 292 Z " /><path fill="rgb(138,225,228)" stroke="rgb(138,225,228)" stroke-width="1" opacity="1" d="M 284.5 292 L 286.5 295 L 284.5 292 Z " /><path fill="rgb(138,225,228)" stroke="rgb(138,225,228)" stroke-width="1" opacity="1" d="M 191.5 293 L 190.5 295 L 191.5 293 Z " /><path fill="rgb(138,225,228)" stroke="rgb(138,225,228)" stroke-width="1" opacity="1" d="M 292.5 294 L 293 315.5 L 295 317.5 L 292 315.5 L 292.5 294 Z " /><path fill="rgb(138,225,228)" stroke="rgb(138,225,228)" stroke-width="1" opacity="1" d="M 260.5 295 L 261 315.5 L 260 315.5 L 260.5 295 Z " /><path fill="rgb(138,225,228)" stroke="rgb(138,225,228)" stroke-width="1" opacity="1" d="M 196.5 296 L 198 296.5 L 193.5 300 L 196.5 296 Z " /><path fill="rgb(138,225,228)" stroke="rgb(138,225,228)" stroke-width="1" opacity="1" d="M 199.5 296 L 202 297.5 L 200.5 297 L 199.5 296 Z " /><path fill="rgb(138,225,228)" stroke="rgb(138,225,228)" stroke-width="1" opacity="1" d="M 206.5 296 L 207 300.5 L 206 300.5 L 206.5 296 Z " /><path fill="rgb(138,225,228)" stroke="rgb(138,225,228)" stroke-width="1" opacity="1" d="M 277.5 296 L 279 296.5 L 276 298.5 L 275.5 300 L 275 298.5 L 277.5 296 Z " /><path fill="rgb(138,225,228)" stroke="rgb(138,225,228)" stroke-width="1" opacity="1" d="M 301.5 298 L 302.5 300 L 301.5 298 Z " /><path fill="rgb(138,225,228)" stroke="rgb(138,225,228)" stroke-width="1" opacity="1" d="M 220.5 300 L 221.5 302 Q 218.7 302.7 220.5 300 Z " /><path fill="rgb(138,225,228)" stroke="rgb(138,225,228)" stroke-width="1" opacity="1" d="M 284.5 300 L 285 302.5 L 284 302.5 L 284.5 300 Z " /><path fill="rgb(138,225,228)" stroke="rgb(138,225,228)" stroke-width="1" opacity="1" d="M 274.5 301 L 275 306.5 L 274 306.5 L 274.5 301 Z " /><path fill="rgb(138,225,228)" stroke="rgb(138,225,228)" stroke-width="1" opacity="1" d="M 289.5 301 L 290 308.5 L 289 308.5 L 289.5 301 Z " /><path fill="rgb(138,225,228)" stroke="rgb(138,225,228)" stroke-width="1" opacity="1" d="M 297.5 301 Q 300.3 302.3 298 303.5 L 297.5 315 L 297.5 301 Z " /><path fill="rgb(138,225,228)" stroke="rgb(138,225,228)" stroke-width="1" opacity="1" d="M 187.5 302 L 188 305.5 L 187 305.5 L 187.5 302 Z " /><path fill="rgb(138,225,228)" stroke="rgb(138,225,228)" stroke-width="1" opacity="1" d="M 269.5 302 L 270 305.5 L 269 305.5 L 269.5 302 Z " /><path fill="rgb(138,225,228)" stroke="rgb(138,225,228)" stroke-width="1" opacity="1" d="M 192.5 303 L 193 305.5 L 192 305.5 L 192.5 303 Z " /><path fill="rgb(138,225,228)" stroke="rgb(138,225,228)" stroke-width="1" opacity="1" d="M 205.5 304 L 206.5 306 L 205.5 304 Z " /><path fill="rgb(138,225,228)" stroke="rgb(138,225,228)" stroke-width="1" opacity="1" d="M 299.5 304 L 300.5 306 L 299.5 304 Z " /><path fill="rgb(138,225,228)" stroke="rgb(138,225,228)" stroke-width="1" opacity="1" d="M 307.5 305 L 308 307 L 306 306.5 L 307.5 305 Z " /><path fill="rgb(138,225,228)" stroke="rgb(138,225,228)" stroke-width="1" opacity="1" d="M 284.5 306 L 285 308.5 L 284 308.5 L 284.5 306 Z " /><path fill="rgb(138,225,228)" stroke="rgb(138,225,228)" stroke-width="1" opacity="1" d="M 245.5 307 L 246.5 309 Q 243.7 309.7 245.5 307 Z " /><path fill="rgb(138,225,228)" stroke="rgb(138,225,228)" stroke-width="1" opacity="1" d="M 301.5 307 L 302.5 309 L 301.5 307 Z " /><path fill="rgb(138,225,228)" stroke="rgb(138,225,228)" stroke-width="1" opacity="1" d="M 275.5 309 L 277.5 312 L 275.5 309 Z " /><path fill="rgb(138,225,228)" stroke="rgb(138,225,228)" stroke-width="1" opacity="1" d="M 283.5 310 L 282.5 312 L 283.5 310 Z " /><path fill="rgb(138,225,228)" stroke="rgb(138,225,228)" stroke-width="1" opacity="1" d="M 303.5 310 L 304.5 312 L 303.5 310 Z " /><path fill="rgb(138,225,228)" stroke="rgb(138,225,228)" stroke-width="1" opacity="1" d="M 196.5 312 L 200 312.5 L 196.5 313 L 196.5 312 Z " /><path fill="rgb(138,225,228)" stroke="rgb(138,225,228)" stroke-width="1" opacity="1" d="M 250.5 312 L 251 313.5 L 249 314.5 L 250.5 312 Z " /><path fill="rgb(138,225,228)" stroke="rgb(138,225,228)" stroke-width="1" opacity="1" d="M 272.5 313 L 273.5 315 L 272.5 313 Z " /><path fill="rgb(138,225,228)" stroke="rgb(138,225,228)" stroke-width="1" opacity="1" d="M 305.5 313 L 306.5 315 L 305.5 313 Z " /><path fill="rgb(138,225,228)" stroke="rgb(138,225,228)" stroke-width="1" opacity="1" d="M 190.5 314 L 191.5 316 L 190.5 314 Z " /><path fill="rgb(138,225,228)" stroke="rgb(138,225,228)" stroke-width="1" opacity="1" d="M 205.5 314 L 203.5 317 L 205.5 314 Z " /><path fill="rgb(138,225,228)" stroke="rgb(138,225,228)" stroke-width="1" opacity="1" d="M 209.5 314 L 211 316.5 L 209 315.5 L 209.5 314 Z " /><path fill="rgb(138,225,228)" stroke="rgb(138,225,228)" stroke-width="1" opacity="1" d="M 242.5 314 L 244.5 317 L 242.5 314 Z " /><path fill="rgb(138,225,228)" stroke="rgb(138,225,228)" stroke-width="1" opacity="1" d="M 214.5 315 L 213.5 317 L 214.5 315 Z " /><path fill="rgb(138,225,228)" stroke="rgb(138,225,228)" stroke-width="1" opacity="1" d="M 195.5 317 L 201 317.5 L 195.5 318 L 195.5 317 Z " /><path fill="rgb(254,254,254)" stroke="rgb(254,254,254)" stroke-width="1" opacity="1" d="M 150.5 149 L 148.5 152 L 150.5 149 Z " /><path fill="rgb(254,254,254)" stroke="rgb(254,254,254)" stroke-width="1" opacity="1" d="M 281.5 149 L 280.5 151 L 281.5 149 Z " /><path fill="rgb(254,254,254)" stroke="rgb(254,254,254)" stroke-width="1" opacity="1" d="M 348.5 149 L 349.5 151 L 348.5 149 Z " /><path fill="rgb(254,254,254)" stroke="rgb(254,254,254)" stroke-width="1" opacity="1" d="M 147.5 154 L 148 212.5 L 147 212.5 L 147.5 154 Z " /><path fill="rgb(254,254,254)" stroke="rgb(254,254,254)" stroke-width="1" opacity="1" d="M 351.5 155 L 352 212.5 L 351 212.5 L 351.5 155 Z " /><path fill="rgb(254,254,254)" stroke="rgb(254,254,254)" stroke-width="1" opacity="1" d="M 218.5 160 L 216.5 163 L 218.5 160 Z " /><path fill="rgb(254,254,254)" stroke="rgb(254,254,254)" stroke-width="1" opacity="1" d="M 280.5 160 L 282.5 163 L 280.5 160 Z " /><path fill="rgb(254,254,254)" stroke="rgb(254,254,254)" stroke-width="1" opacity="1" d="M 304.5 213 L 305 241 L 355 241.5 L 304 242 L 304.5 213 Z " /><path fill="rgb(254,254,254)" stroke="rgb(254,254,254)" stroke-width="1" opacity="1" d="M 235.5 215 L 280 215.5 L 235.5 216 L 235.5 215 Z " /><path fill="rgb(254,254,254)" stroke="rgb(254,254,254)" stroke-width="1" opacity="1" d="M 162.5 216 L 160.5 219 L 162.5 216 Z " /><path fill="rgb(254,254,254)" stroke="rgb(254,254,254)" stroke-width="1" opacity="1" d="M 336.5 216 L 338.5 219 L 336.5 216 Z " /><path fill="rgb(254,254,254)" stroke="rgb(254,254,254)" stroke-width="1" opacity="1" d="M 149.5 217 L 150.5 219 L 149.5 217 Z " /><path fill="rgb(254,254,254)" stroke="rgb(254,254,254)" stroke-width="1" opacity="1" d="M 275.5 228 L 276 242 L 264 241.5 L 275 241 L 275.5 228 Z " /><path fill="rgb(254,254,254)" stroke="rgb(254,254,254)" stroke-width="1" opacity="1" d="M 250.5 235 L 249.5 237 L 250.5 235 Z " /><path fill="rgb(254,254,254)" stroke="rgb(254,254,254)" stroke-width="1" opacity="1" d="M 219.5 237 L 220.5 239 L 219.5 237 Z " /><path fill="rgb(254,254,254)" stroke="rgb(254,254,254)" stroke-width="1" opacity="1" d="M 144.5 241 L 167 241.5 L 144.5 242 L 144.5 241 Z " /><path fill="rgb(254,254,254)" stroke="rgb(254,254,254)" stroke-width="1" opacity="1" d="M 175.5 241 L 198 241.5 L 175.5 242 L 175.5 241 Z " /><path fill="rgb(254,254,254)" stroke="rgb(254,254,254)" stroke-width="1" opacity="1" d="M 202.5 241 L 207 241.5 L 202.5 242 L 202.5 241 Z " /><path fill="rgb(254,254,254)" stroke="rgb(254,254,254)" stroke-width="1" opacity="1" d="M 222.5 241 L 235 241.5 L 222.5 242 L 222.5 241 Z " /><path fill="rgb(254,254,254)" stroke="rgb(254,254,254)" stroke-width="1" opacity="1" d="M 239.5 241 L 248 241.5 L 239.5 242 L 239.5 241 Z " /><path fill="rgb(254,254,254)" stroke="rgb(254,254,254)" stroke-width="1" opacity="1" d="M 252.5 241 L 260 241.5 L 252.5 242 L 252.5 241 Z " /><path fill="rgb(254,254,254)" stroke="rgb(254,254,254)" stroke-width="1" opacity="1" d="M 280.5 241 L 285 241.5 L 280.5 242 L 280.5 241 Z " /><path fill="rgb(254,254,254)" stroke="rgb(254,254,254)" stroke-width="1" opacity="1" d="M 290.5 241 L 300 241.5 L 290.5 242 L 290.5 241 Z " /><path fill="rgb(254,254,254)" stroke="rgb(254,254,254)" stroke-width="1" opacity="1" d="M 141.5 242 L 143 242.5 L 138.5 246 L 139 244.5 Q 138.3 242.3 140.5 243 L 141.5 242 Z " /><path fill="rgb(254,254,254)" stroke="rgb(254,254,254)" stroke-width="1" opacity="1" d="M 356.5 242 L 360 243 L 361 245.5 L 357.5 243 L 356.5 242 Z " /><path fill="rgb(254,254,254)" stroke="rgb(254,254,254)" stroke-width="1" opacity="1" d="M 361.5 247 L 362 251.5 L 361 251.5 L 361.5 247 Z " /><path fill="rgb(254,254,254)" stroke="rgb(254,254,254)" stroke-width="1" opacity="1" d="M 138.5 253 L 141.5 257 L 139 256 L 138.5 253 Z " /><path fill="rgb(254,254,254)" stroke="rgb(254,254,254)" stroke-width="1" opacity="1" d="M 360.5 253 L 360 254.5 Q 360.8 256.8 358.5 256 L 357 256.5 L 360.5 253 Z " /><path fill="rgb(254,254,254)" stroke="rgb(254,254,254)" stroke-width="1" opacity="1" d="M 143.5 257 L 197.5 257 L 199 258.5 L 197.5 258 L 143.5 258 L 143.5 257 Z " /><path fill="rgb(254,254,254)" stroke="rgb(254,254,254)" stroke-width="1" opacity="1" d="M 205.5 257 L 275.5 257 L 276 259.5 L 275 259.5 L 274.5 258 L 205.5 258 L 205.5 257 Z " /><path fill="rgb(254,254,254)" stroke="rgb(254,254,254)" stroke-width="1" opacity="1" d="M 280.5 257 L 285 257.5 L 280.5 258 L 280.5 257 Z " /><path fill="rgb(254,254,254)" stroke="rgb(254,254,254)" stroke-width="1" opacity="1" d="M 290.5 257 L 300 257.5 L 290.5 258 L 290.5 257 Z " /><path fill="rgb(254,254,254)" stroke="rgb(254,254,254)" stroke-width="1" opacity="1" d="M 304 257 L 356 257.5 L 305 258 L 304.5 274 L 304 257 Z " /><path fill="rgb(254,254,254)" stroke="rgb(254,254,254)" stroke-width="1" opacity="1" d="M 285.5 260 L 286.5 262 L 285.5 260 Z " /><path fill="rgb(254,254,254)" stroke="rgb(254,254,254)" stroke-width="1" opacity="1" d="M 289.5 260 L 288.5 262 L 289.5 260 Z " /><path fill="rgb(254,254,254)" stroke="rgb(254,254,254)" stroke-width="1" opacity="1" d="M 150.5 280 L 149.5 282 L 150.5 280 Z " /><path fill="rgb(254,254,254)" stroke="rgb(254,254,254)" stroke-width="1" opacity="1" d="M 160.5 280 L 162.5 283 L 160.5 280 Z " /><path fill="rgb(254,254,254)" stroke="rgb(254,254,254)" stroke-width="1" opacity="1" d="M 338.5 280 L 336.5 283 L 338.5 280 Z " /><path fill="rgb(254,254,254)" stroke="rgb(254,254,254)" stroke-width="1" opacity="1" d="M 147.5 285 L 148 343.5 L 147 343.5 L 147.5 285 Z " /><path fill="rgb(254,254,254)" stroke="rgb(254,254,254)" stroke-width="1" opacity="1" d="M 351.5 287 L 352 343.5 L 351 343.5 L 351.5 287 Z " /><path fill="rgb(254,254,254)" stroke="rgb(254,254,254)" stroke-width="1" opacity="1" d="M 222.5 291 L 223.5 293 L 222.5 291 Z " /><path fill="rgb(254,254,254)" stroke="rgb(254,254,254)" stroke-width="1" opacity="1" d="M 239.5 291 L 240.5 293 L 239.5 291 Z " /><path fill="rgb(254,254,254)" stroke="rgb(254,254,254)" stroke-width="1" opacity="1" d="M 297.5 291 L 298.5 293 L 297.5 291 Z " /><path fill="rgb(254,254,254)" stroke="rgb(254,254,254)" stroke-width="1" opacity="1" d="M 274.5 292 L 271.5 296 L 274.5 292 Z " /><path fill="rgb(254,254,254)" stroke="rgb(254,254,254)" stroke-width="1" opacity="1" d="M 312.5 293 L 313 314.5 L 312 314.5 L 312.5 293 Z " /><path fill="rgb(254,254,254)" stroke="rgb(254,254,254)" stroke-width="1" opacity="1" d="M 202.5 300 L 203.5 302 L 202.5 300 Z " /><path fill="rgb(254,254,254)" stroke="rgb(254,254,254)" stroke-width="1" opacity="1" d="M 304.5 302 L 305.5 304 L 304.5 302 Z " /><path fill="rgb(254,254,254)" stroke="rgb(254,254,254)" stroke-width="1" opacity="1" d="M 284.5 303 L 285 305.5 L 284 305.5 L 284.5 303 Z " /><path fill="rgb(254,254,254)" stroke="rgb(254,254,254)" stroke-width="1" opacity="1" d="M 245.5 306 L 246.5 308 L 245.5 306 Z " /><path fill="rgb(254,254,254)" stroke="rgb(254,254,254)" stroke-width="1" opacity="1" d="M 194.5 310 L 195.5 312 L 194.5 310 Z " /><path fill="rgb(254,254,254)" stroke="rgb(254,254,254)" stroke-width="1" opacity="1" d="M 201.5 310 L 200.5 312 L 201.5 310 Z " /><path fill="rgb(254,254,254)" stroke="rgb(254,254,254)" stroke-width="1" opacity="1" d="M 216.5 312 L 226 312.5 L 216.5 313 L 216.5 312 Z " /><path fill="rgb(254,254,254)" stroke="rgb(254,254,254)" stroke-width="1" opacity="1" d="M 288.5 312 L 287.5 314 L 288.5 312 Z " /><path fill="rgb(254,254,254)" stroke="rgb(254,254,254)" stroke-width="1" opacity="1" d="M 249.5 315 L 248.5 317 L 249.5 315 Z " /><path fill="rgb(254,254,254)" stroke="rgb(254,254,254)" stroke-width="1" opacity="1" d="M 306.5 315 L 307.5 317 L 306.5 315 Z " /><path fill="rgb(254,254,254)" stroke="rgb(254,254,254)" stroke-width="1" opacity="1" d="M 292.5 316 L 293.5 318 L 292.5 316 Z " /><path fill="rgb(254,254,254)" stroke="rgb(254,254,254)" stroke-width="1" opacity="1" d="M 261.5 317 L 264 317.5 L 261.5 318 L 261.5 317 Z " /><path fill="rgb(254,254,254)" stroke="rgb(254,254,254)" stroke-width="1" opacity="1" d="M 216.5 336 L 218.5 339 L 216.5 336 Z " /><path fill="rgb(254,254,254)" stroke="rgb(254,254,254)" stroke-width="1" opacity="1" d="M 282.5 336 L 280.5 339 L 282.5 336 Z " /><path fill="rgb(254,254,254)" stroke="rgb(254,254,254)" stroke-width="1" opacity="1" d="M 219.5 345 L 220 346.5 L 218 347.5 L 219.5 345 Z " /><path fill="rgb(254,254,254)" stroke="rgb(254,254,254)" stroke-width="1" opacity="1" d="M 149.5 348 L 150.5 350 L 149.5 348 Z " /><path fill="rgb(254,254,254)" stroke="rgb(254,254,254)" stroke-width="1" opacity="1" d="M 349.5 348 L 348.5 350 L 349.5 348 Z " /><path fill="rgb(255,255,255)" stroke="rgb(255,255,255)" stroke-width="1" opacity="1" d="M 0 0 L 500 0 L 500 500 L 0 500 L 0 0 Z M 153 148 L 151 149 L 147 155 L 147 213 L 149 218 L 153 220 L 161 219 L 164 215 L 164 164 L 215 164 L 217 163 L 220 159 L 220 153 L 218 149 L 216 148 L 153 148 Z M 284 148 L 282 149 L 279 153 L 280 161 L 285 164 L 335 164 L 335 215 L 336 217 Q 338 221 347 220 L 352 213 L 352 156 L 350 151 L 347 148 L 284 148 Z M 226 211 L 200 228 L 198 229 L 198 235 L 183 235 L 173 237 L 168 241 L 145 241 L 139 243 L 138 246 Q 137 253 139 256 L 144 258 L 198 258 L 226 276 L 304 276 L 305 274 L 305 258 L 356 258 L 360 256 L 362 252 Q 363 245 360 243 L 355 241 L 305 241 L 305 214 L 303 211 L 226 211 Z M 153 279 L 151 280 L 147 286 L 147 344 L 149 349 L 153 351 L 216 351 L 220 347 L 219 339 L 215 335 L 164 335 L 164 286 L 163 283 Q 161 278 153 279 Z M 341 279 L 339 280 L 335 285 L 335 335 L 285 335 L 283 336 L 279 341 Q 278 350 284 351 L 347 351 L 349 350 L 352 344 L 352 288 L 351 284 Q 350 278 341 279 Z M 195 291 L 193 292 Q 188 295 187 302 L 187 308 L 189 314 L 195 318 L 204 317 L 207 314 L 207 304 L 198 304 L 198 308 L 202 310 Q 201 313 197 312 L 193 308 L 194 300 Q 196 296 201 297 L 202 301 L 206 302 Q 208 301 207 296 Q 205 289 195 291 Z M 220 291 L 211 309 L 209 317 L 212 318 L 215 317 L 216 315 L 217 313 L 226 313 L 227 317 L 230 318 L 233 316 L 224 293 Q 223 290 220 291 Z M 237 291 L 235 293 L 235 298 L 237 304 L 243 316 Q 242 318 249 317 Q 256 308 257 293 Q 256 290 252 291 L 247 307 L 244 304 L 241 293 Q 240 290 237 291 Z M 261 291 L 260 294 L 260 316 L 261 317 Q 260 319 264 318 L 266 316 L 266 293 Q 265 290 261 291 Z M 278 291 L 275 292 Q 270 295 269 301 L 269 307 L 271 313 L 277 317 L 286 316 L 290 310 Q 291 300 288 296 Q 286 290 278 291 Z M 293 291 L 292 294 L 292 317 L 296 318 L 298 316 L 299 304 L 306 316 L 311 318 L 313 315 L 313 294 L 312 293 L 312 291 L 307 291 L 307 305 L 299 293 Q 298 290 293 291 Z " /><path fill="rgb(255,255,255)" stroke="rgb(255,255,255)" stroke-width="1" opacity="1" d="M 228.5 215 Q 234 213.5 235.5 216 L 300 216 L 300 241 L 290 241 L 290 227.5 L 288.5 226 L 285 226.5 L 285 241 L 280 241 L 280 227.5 L 278.5 226 Q 275.2 224.9 276 227.5 L 275 228.5 L 275 241 L 264.5 241 L 264 238.5 Q 262.3 232.3 252.5 234 L 249 236.5 L 248 241 L 240.5 241 L 240 239.5 L 246 235.5 Q 244.8 232.8 239.5 234 Q 235.4 236.3 235 241 L 222.5 241 L 221 239.5 L 219.5 237 L 211.5 236 L 208 238.5 L 206.5 241 L 202 241 L 202 231 L 228.5 215 Z " /><path fill="rgb(255,255,255)" stroke="rgb(255,255,255)" stroke-width="1" opacity="1" d="M 254.5 238 Q 259.3 237.3 260 240.5 L 252.5 241 L 254.5 238 Z " /><path fill="rgb(255,255,255)" stroke="rgb(255,255,255)" stroke-width="1" opacity="1" d="M 188.5 239 L 198 240.5 L 179.5 241 L 179.5 240 L 187.5 240 L 188.5 239 Z " /><path fill="rgb(255,255,255)" stroke="rgb(255,255,255)" stroke-width="1" opacity="1" d="M 207.5 258 L 274.5 258 L 275 259.5 L 276 262 Q 282 264 280 258 L 285 258 L 286.5 262 L 290 260.5 L 290.5 258 L 300 258 L 300 271.5 L 299.5 272 L 228.5 272 L 207.5 259 L 207.5 258 Z " /><path fill="rgb(255,255,255)" stroke="rgb(255,255,255)" stroke-width="1" opacity="1" d="M 277.5 297 Q 282 296 283 298.5 Q 285.3 301.7 284 308.5 L 283 311 L 279.5 312 L 276 309.5 L 275 300.5 L 277.5 297 Z " /><path fill="rgb(255,255,255)" stroke="rgb(255,255,255)" stroke-width="1" opacity="1" d="M 220.5 302 L 223 307 Q 217.8 309.1 219 304.5 L 220.5 302 Z " /><path fill="rgb(60,118,128)" stroke="rgb(60,118,128)" stroke-width="1" opacity="1" d="M 226.5 211 L 302.5 211 L 304 212.5 L 304 274.5 L 302.5 276 L 226.5 276 L 198 257.5 L 198 252 L 182.5 252 L 171.5 249 L 168 246.5 L 167 242.5 L 174.5 237 L 186.5 236 L 187.5 235 L 198 235 Q 196.5 229.6 199.5 228 L 226.5 211 Z M 228 215 L 202 232 L 202 247 L 206 247 L 207 246 L 208 240 L 213 236 L 219 237 L 222 242 Q 223 249 218 251 Q 212 253 211 250 L 207 251 Q 200 249 202 256 L 228 272 L 300 272 L 300 215 L 228 215 Z M 184 239 L 175 241 L 171 244 L 179 247 L 198 248 L 198 239 L 184 239 Z M 217 241 L 215 247 L 217 247 L 218 245 L 217 241 Z " /><path fill="rgb(60,118,128)" stroke="rgb(60,118,128)" stroke-width="1" opacity="1" d="M 286 226 L 289 226.5 L 289 261 Q 284.5 262.8 286 257.5 L 285 256.5 L 285 242.5 L 286 241.5 L 286 226 Z " /><path fill="rgb(60,118,128)" stroke="rgb(60,118,128)" stroke-width="1" opacity="1" d="M 276 227 L 280 228.5 L 280 260.5 L 278.5 262 L 276 260.5 L 276 227 Z " /><path fill="rgb(60,118,128)" stroke="rgb(60,118,128)" stroke-width="1" opacity="1" d="M 241.5 234 L 245 235.5 Q 245.8 238.1 242.5 237 L 240 238 Q 238.3 240.4 239 246.5 L 240 249 L 244.5 250 L 247 249 Q 248.9 246.3 248 239.5 L 251.5 235 L 257.5 234 L 262 236 L 264 242 Q 267.8 241 269 243.5 L 269 245 L 264 245 L 264 247.5 L 259.5 253 Q 253.4 254.3 254 251.5 L 260 247.5 Q 262 239 257.5 237 Q 252.8 236.3 252 239.5 L 251 248.5 L 248.5 252 L 240.5 253 L 237 250.5 L 234.5 245 Q 230.8 245.8 230 243.5 Q 231.4 240.8 236 242 Q 235 236.4 239.5 235 L 241.5 234 Z " /><path fill="rgb(60,118,128)" stroke="rgb(60,118,128)" stroke-width="1" opacity="1" d="M 263.5 291 L 265 292.5 L 265 315.5 L 261 317 L 261 292.5 L 262.5 292 L 263.5 291 Z " /><path fill="rgb(60,118,128)" stroke="rgb(60,118,128)" stroke-width="1" opacity="1" d="M 294.5 291 L 298 292 L 306 307 Q 308.7 308.1 308 305.5 L 307 304.5 L 307 295.5 L 309.5 291 L 312 292.5 L 312 315.5 L 310.5 317 L 307 315.5 L 297.5 301 L 297 315.5 L 295.5 317 L 293 315.5 L 293 292.5 L 294.5 291 Z " /><path fill="rgb(60,118,128)" stroke="rgb(60,118,128)" stroke-width="1" opacity="1" d="M 194.5 292 Q 204 290 206 295.5 Q 208.3 302.8 203 301 L 200.5 296 Q 194 295 193 299.5 L 192 305.5 L 193 309.5 L 196.5 313 Q 201.3 313.8 202 310.5 Q 203.3 306.8 199.5 308 L 198 305 L 204.5 304 Q 208 305 207 310.5 L 202.5 317 Q 192.8 318.8 190 313.5 Q 186.9 309.1 188 300.5 L 192.5 293 L 194.5 292 Z " /><path fill="rgb(60,118,128)" stroke="rgb(60,118,128)" stroke-width="1" opacity="1" d="M 219.5 292 Q 223.9 290.5 223 293.5 L 232 315.5 L 228 317 L 225.5 312 L 216.5 312 L 215 313.5 L 212.5 317 L 210 315.5 L 219.5 292 Z M 221 300 L 218 306 L 219 307 L 224 307 L 221 300 Z " /><path fill="rgb(60,118,128)" stroke="rgb(60,118,128)" stroke-width="1" opacity="1" d="M 236 292 Q 241.2 289.9 240 294.5 L 245 309 Q 248 310.3 247 306.5 L 253.5 292 L 256 292 L 256 297.5 L 249 316 L 245.5 317 L 241 311.5 L 235 294.5 L 236 292 Z " /><path fill="rgb(60,118,128)" stroke="rgb(60,118,128)" stroke-width="1" opacity="1" d="M 276.5 292 Q 286.3 290.3 288 296.5 Q 290.4 301.6 289 310.5 L 285.5 315 L 279.5 317 L 272 312.5 Q 268.7 308.8 270 300.5 L 274.5 293 L 276.5 292 Z M 278 296 L 274 302 L 275 310 Q 276 313 283 312 L 285 309 Q 286 302 284 299 Q 283 295 278 296 Z " /></svg>