<svg width="512" height="512" version="1.1" xmlns="http://www.w3.org/2000/svg" desc="Created with imagetracer.js version 1.2.6" ><path fill="rgb(0,198,60)" stroke="rgb(0,198,60)" stroke-width="1" opacity="0.5490196078431373" d="M 235.5 0 L 247 0.5 L 218.5 3 L 218.5 2 L 234.5 1 L 235.5 0 Z " /><path fill="rgb(0,198,60)" stroke="rgb(0,198,60)" stroke-width="1" opacity="0.5490196078431373" d="M 266.5 0 L 287.5 1 L 306 4.5 L 301.5 5 L 287.5 2 L 266.5 1 L 266.5 0 Z " /><path fill="rgb(0,198,60)" stroke="rgb(0,198,60)" stroke-width="1" opacity="0.5490196078431373" d="M 211.5 3 L 217 3.5 Q 168.3 11.3 132.5 32 Q 96.9 51.9 70 80.5 Q 40.7 111.2 22 152.5 L 10 185.5 L 4 211.5 L 2.5 224 L 2 217.5 Q 10.5 167.5 32 130.5 Q 53 93.5 83.5 66 Q 113.2 38.7 152.5 21 L 185.5 9 L 211.5 3 Z " /><path fill="rgb(0,198,60)" stroke="rgb(0,198,60)" stroke-width="1" opacity="0.5490196078431373" d="M 307.5 5 L 323 8.5 L 320.5 9 L 307.5 6 L 307.5 5 Z " /><path fill="rgb(0,198,60)" stroke="rgb(0,198,60)" stroke-width="1" opacity="0.5490196078431373" d="M 324.5 9 L 330 10.5 L 327.5 11 L 324.5 10 L 324.5 9 Z " /><path fill="rgb(0,198,60)" stroke="rgb(0,198,60)" stroke-width="1" opacity="0.5490196078431373" d="M 331.5 11 Q 364.5 20.5 390.5 37 Q 424.4 58.1 450 87.5 Q 475.5 116 492 153.5 L 503 183.5 L 508 203.5 L 510 220.5 L 511 221.5 L 511 228.5 L 512 229.5 L 512 241.5 L 511 241.5 L 511 229.5 L 510 228.5 L 510 221.5 L 509 220.5 L 507 203.5 L 501 180.5 L 490 151.5 Q 466.4 100.1 426.5 65 Q 407 47.5 383.5 34 L 350.5 18 L 331.5 12 L 331.5 11 Z " /><path fill="rgb(0,198,60)" stroke="rgb(0,198,60)" stroke-width="1" opacity="0.5490196078431373" d="M 1.5 225 L 2 234.5 L 1 235.5 L 0.5 247 L 0 234.5 L 1 233.5 L 1.5 225 Z " /><path fill="rgb(0,198,60)" stroke="rgb(0,198,60)" stroke-width="1" opacity="0.5490196078431373" d="M 0.5 265 L 2 287.5 L 7 315.5 Q 13.5 342 24 364.5 Q 47.3 413.3 85.5 447 Q 120 478.5 168 496.5 L 166.5 497 Q 102.6 472.4 62 424.5 Q 32.5 391 15 345.5 L 4 306.5 L 2 288.5 L 1 287.5 L 1 278.5 L 0 277.5 L 0.5 265 Z " /><path fill="rgb(0,198,60)" stroke="rgb(0,198,60)" stroke-width="1" opacity="0.5490196078431373" d="M 511.5 271 L 512 283.5 L 511 284.5 L 511 291.5 L 507 313.5 L 500 338.5 L 483 377.5 Q 461.1 417.6 428.5 447 Q 404.9 468.4 375.5 484 L 346.5 497 L 321.5 505 L 314.5 506 L 314.5 505 L 321.5 504 L 346.5 496 L 384.5 478 Q 417 459 442 432.5 Q 472.9 400.4 492 356.5 L 506 313.5 L 510 291.5 L 511.5 271 Z " /><path fill="rgb(0,198,60)" stroke="rgb(0,198,60)" stroke-width="1" opacity="0.5490196078431373" d="M 169.5 497 L 203 506.5 L 199.5 507 L 171.5 499 L 169.5 497 Z " /><path fill="rgb(0,198,60)" stroke="rgb(0,198,60)" stroke-width="1" opacity="0.5490196078431373" d="M 309.5 506 L 313 506.5 L 291.5 511 L 284.5 511 L 284.5 510 L 291.5 510 L 309.5 506 Z " /><path fill="rgb(0,198,60)" stroke="rgb(0,198,60)" stroke-width="1" opacity="0.5490196078431373" d="M 204.5 507 L 221.5 510 L 228.5 510 L 229.5 511 L 242 511.5 L 229.5 512 L 228.5 511 L 221.5 511 L 204.5 508 L 204.5 507 Z " /><path fill="rgb(0,198,60)" stroke="rgb(0,198,60)" stroke-width="1" opacity="0.5490196078431373" d="M 270.5 511 L 283 511.5 L 270.5 512 L 270.5 511 Z " /><path fill="rgb(0,199,60)" stroke="rgb(0,199,60)" stroke-width="1" opacity="1" d="M 247.5 0 L 277.5 1 L 278.5 2 L 287.5 2 L 288.5 3 L 306.5 5 L 330.5 11 L 357.5 21 Q 411.6 44.9 448 86.5 Q 479.1 120.9 497 168.5 L 503 187.5 L 509 214.5 L 510 228.5 L 511 229.5 L 511 241.5 L 512 242.5 L 512 270.5 L 511 271.5 L 510 291.5 L 504 321.5 Q 497.6 345.1 488 365.5 Q 466.4 409.9 432.5 442 Q 396.9 476.4 346.5 496 L 321.5 504 L 291.5 510 L 270.5 511 L 269.5 512 L 242.5 512 L 241.5 511 L 229.5 511 L 228.5 510 L 221.5 510 L 220.5 509 L 203.5 507 L 180.5 501 L 151.5 490 Q 100.1 466.4 65 426.5 Q 33.1 391.4 15 342.5 L 9 323.5 L 3 294.5 L 2 278.5 L 1 277.5 L 1 265.5 L 0 264.5 L 0 247.5 L 1 246.5 L 2 224.5 L 6 201.5 L 10 185.5 L 22 152.5 Q 44 104 80.5 70 Q 113.8 38.3 159.5 19 Q 178.9 10.9 201.5 6 L 217.5 3 L 234.5 2 L 235.5 1 L 246.5 1 L 247.5 0 Z M 128 139 L 128 373 L 130 374 L 214 374 L 215 253 L 296 373 L 298 374 L 384 374 L 384 139 L 298 139 L 298 259 L 217 141 L 216 139 L 128 139 Z " /><path fill="rgb(0,0,0)" stroke="rgb(0,0,0)" stroke-width="1" opacity="0" d="M 0 0 L 235 0.5 L 201.5 5 L 185.5 9 L 152.5 21 Q 101.3 44.3 66 83.5 Q 38.7 113.2 21 152.5 L 9 185.5 L 3 211.5 L 0.5 234 L 0 0 Z " /><path fill="rgb(0,0,0)" stroke="rgb(0,0,0)" stroke-width="1" opacity="0" d="M 278.5 0 L 512 0 L 512 228.5 L 511 228.5 L 509 208.5 L 503 183.5 Q 494 154 480 129.5 Q 457.5 90.5 424.5 62 Q 392.9 34.1 350.5 17 L 315.5 6 L 287.5 1 L 278.5 1 L 278.5 0 Z " /><path fill="rgb(0,0,0)" stroke="rgb(0,0,0)" stroke-width="1" opacity="0" d="M 0.5 278 L 4 306.5 L 10 330.5 Q 18 356.5 30 378.5 Q 53 420 87.5 450 Q 115.3 474.7 151.5 491 L 187.5 504 L 214.5 510 L 229 511.5 L 0 512 L 0.5 278 Z " /><path fill="rgb(0,0,0)" stroke="rgb(0,0,0)" stroke-width="1" opacity="0" d="M 511.5 284 L 512 512 L 283 511.5 L 303.5 509 L 328.5 503 Q 353.9 495.4 375.5 484 Q 416.9 461.9 447 428.5 Q 472.8 400.3 490 363.5 L 504 325.5 L 509 303.5 L 511.5 284 Z " /><path fill="rgb(204,244,216)" stroke="rgb(204,244,216)" stroke-width="1" opacity="1" d="M 128 139 L 215.5 139 L 217 140.5 L 215.5 140 L 129 140 L 129 373 L 214 373.5 L 129.5 374 L 128 372.5 L 128 139 Z " /><path fill="rgb(204,244,216)" stroke="rgb(204,244,216)" stroke-width="1" opacity="1" d="M 298 139 L 384 139.5 L 299 140 L 299 259.5 L 297.5 260 L 296.5 258 L 298 258.5 L 298 139 Z " /><path fill="rgb(204,244,216)" stroke="rgb(204,244,216)" stroke-width="1" opacity="1" d="M 217.5 142 L 218.5 144 L 217.5 142 Z " /><path fill="rgb(204,244,216)" stroke="rgb(204,244,216)" stroke-width="1" opacity="1" d="M 219.5 145 L 220.5 147 L 219.5 145 Z " /><path fill="rgb(204,244,216)" stroke="rgb(204,244,216)" stroke-width="1" opacity="1" d="M 221.5 148 L 222.5 150 L 221.5 148 Z " /><path fill="rgb(204,244,216)" stroke="rgb(204,244,216)" stroke-width="1" opacity="1" d="M 224.5 152 L 225.5 154 L 224.5 152 Z " /><path fill="rgb(204,244,216)" stroke="rgb(204,244,216)" stroke-width="1" opacity="1" d="M 226.5 155 L 227.5 157 L 226.5 155 Z " /><path fill="rgb(204,244,216)" stroke="rgb(204,244,216)" stroke-width="1" opacity="1" d="M 228.5 158 L 229.5 160 L 228.5 158 Z " /><path fill="rgb(204,244,216)" stroke="rgb(204,244,216)" stroke-width="1" opacity="1" d="M 230.5 161 L 231.5 163 L 230.5 161 Z " /><path fill="rgb(204,244,216)" stroke="rgb(204,244,216)" stroke-width="1" opacity="1" d="M 232.5 164 L 233.5 166 L 232.5 164 Z " /><path fill="rgb(204,244,216)" stroke="rgb(204,244,216)" stroke-width="1" opacity="1" d="M 234.5 167 L 235.5 169 L 234.5 167 Z " /><path fill="rgb(204,244,216)" stroke="rgb(204,244,216)" stroke-width="1" opacity="1" d="M 236.5 170 L 237.5 172 L 236.5 170 Z " /><path fill="rgb(204,244,216)" stroke="rgb(204,244,216)" stroke-width="1" opacity="1" d="M 241.5 177 L 242.5 179 L 241.5 177 Z " /><path fill="rgb(204,244,216)" stroke="rgb(204,244,216)" stroke-width="1" opacity="1" d="M 243.5 180 L 244.5 182 L 243.5 180 Z " /><path fill="rgb(204,244,216)" stroke="rgb(204,244,216)" stroke-width="1" opacity="1" d="M 245.5 183 L 246.5 185 L 245.5 183 Z " /><path fill="rgb(204,244,216)" stroke="rgb(204,244,216)" stroke-width="1" opacity="1" d="M 247.5 186 L 248.5 188 L 247.5 186 Z " /><path fill="rgb(204,244,216)" stroke="rgb(204,244,216)" stroke-width="1" opacity="1" d="M 249.5 189 L 250.5 191 L 249.5 189 Z " /><path fill="rgb(204,244,216)" stroke="rgb(204,244,216)" stroke-width="1" opacity="1" d="M 251.5 192 L 252.5 194 L 251.5 192 Z " /><path fill="rgb(204,244,216)" stroke="rgb(204,244,216)" stroke-width="1" opacity="1" d="M 253.5 195 L 254.5 197 L 253.5 195 Z " /><path fill="rgb(204,244,216)" stroke="rgb(204,244,216)" stroke-width="1" opacity="1" d="M 256.5 199 L 257.5 201 L 256.5 199 Z " /><path fill="rgb(204,244,216)" stroke="rgb(204,244,216)" stroke-width="1" opacity="1" d="M 258.5 202 L 259.5 204 L 258.5 202 Z " /><path fill="rgb(204,244,216)" stroke="rgb(204,244,216)" stroke-width="1" opacity="1" d="M 260.5 205 L 261.5 207 L 260.5 205 Z " /><path fill="rgb(204,244,216)" stroke="rgb(204,244,216)" stroke-width="1" opacity="1" d="M 262.5 208 L 263.5 210 L 262.5 208 Z " /><path fill="rgb(204,244,216)" stroke="rgb(204,244,216)" stroke-width="1" opacity="1" d="M 264.5 211 L 265.5 213 L 264.5 211 Z " /><path fill="rgb(204,244,216)" stroke="rgb(204,244,216)" stroke-width="1" opacity="1" d="M 266.5 214 L 267.5 216 L 266.5 214 Z " /><path fill="rgb(204,244,216)" stroke="rgb(204,244,216)" stroke-width="1" opacity="1" d="M 268.5 217 L 269.5 219 L 268.5 217 Z " /><path fill="rgb(204,244,216)" stroke="rgb(204,244,216)" stroke-width="1" opacity="1" d="M 273.5 224 L 274.5 226 L 273.5 224 Z " /><path fill="rgb(204,244,216)" stroke="rgb(204,244,216)" stroke-width="1" opacity="1" d="M 275.5 227 L 276.5 229 L 275.5 227 Z " /><path fill="rgb(204,244,216)" stroke="rgb(204,244,216)" stroke-width="1" opacity="1" d="M 277.5 230 L 278.5 232 L 277.5 230 Z " /><path fill="rgb(204,244,216)" stroke="rgb(204,244,216)" stroke-width="1" opacity="1" d="M 279.5 233 L 280.5 235 L 279.5 233 Z " /><path fill="rgb(204,244,216)" stroke="rgb(204,244,216)" stroke-width="1" opacity="1" d="M 281.5 236 L 282.5 238 L 281.5 236 Z " /><path fill="rgb(204,244,216)" stroke="rgb(204,244,216)" stroke-width="1" opacity="1" d="M 283.5 239 L 284.5 241 L 283.5 239 Z " /><path fill="rgb(204,244,216)" stroke="rgb(204,244,216)" stroke-width="1" opacity="1" d="M 285.5 242 L 286.5 244 L 285.5 242 Z " /><path fill="rgb(204,244,216)" stroke="rgb(204,244,216)" stroke-width="1" opacity="1" d="M 288.5 246 L 289.5 248 L 288.5 246 Z " /><path fill="rgb(204,244,216)" stroke="rgb(204,244,216)" stroke-width="1" opacity="1" d="M 290.5 249 L 291.5 251 L 290.5 249 Z " /><path fill="rgb(204,244,216)" stroke="rgb(204,244,216)" stroke-width="1" opacity="1" d="M 214.5 252 L 216.5 255 L 214.5 252 Z " /><path fill="rgb(204,244,216)" stroke="rgb(204,244,216)" stroke-width="1" opacity="1" d="M 292.5 252 L 293.5 254 L 292.5 252 Z " /><path fill="rgb(204,244,216)" stroke="rgb(204,244,216)" stroke-width="1" opacity="1" d="M 294.5 255 L 295.5 257 L 294.5 255 Z " /><path fill="rgb(204,244,216)" stroke="rgb(204,244,216)" stroke-width="1" opacity="1" d="M 217.5 256 L 218.5 258 L 217.5 256 Z " /><path fill="rgb(204,244,216)" stroke="rgb(204,244,216)" stroke-width="1" opacity="1" d="M 219.5 259 L 220.5 261 L 219.5 259 Z " /><path fill="rgb(204,244,216)" stroke="rgb(204,244,216)" stroke-width="1" opacity="1" d="M 221.5 262 L 222.5 264 L 221.5 262 Z " /><path fill="rgb(204,244,216)" stroke="rgb(204,244,216)" stroke-width="1" opacity="1" d="M 223.5 265 L 224.5 267 L 223.5 265 Z " /><path fill="rgb(204,244,216)" stroke="rgb(204,244,216)" stroke-width="1" opacity="1" d="M 225.5 268 L 226.5 270 L 225.5 268 Z " /><path fill="rgb(204,244,216)" stroke="rgb(204,244,216)" stroke-width="1" opacity="1" d="M 227.5 271 L 228.5 273 L 227.5 271 Z " /><path fill="rgb(204,244,216)" stroke="rgb(204,244,216)" stroke-width="1" opacity="1" d="M 232.5 278 L 233.5 280 L 232.5 278 Z " /><path fill="rgb(204,244,216)" stroke="rgb(204,244,216)" stroke-width="1" opacity="1" d="M 234.5 281 L 235.5 283 L 234.5 281 Z " /><path fill="rgb(204,244,216)" stroke="rgb(204,244,216)" stroke-width="1" opacity="1" d="M 236.5 284 L 237.5 286 L 236.5 284 Z " /><path fill="rgb(204,244,216)" stroke="rgb(204,244,216)" stroke-width="1" opacity="1" d="M 238.5 287 L 239.5 289 L 238.5 287 Z " /><path fill="rgb(204,244,216)" stroke="rgb(204,244,216)" stroke-width="1" opacity="1" d="M 240.5 290 L 241.5 292 L 240.5 290 Z " /><path fill="rgb(204,244,216)" stroke="rgb(204,244,216)" stroke-width="1" opacity="1" d="M 242.5 293 L 243.5 295 L 242.5 293 Z " /><path fill="rgb(204,244,216)" stroke="rgb(204,244,216)" stroke-width="1" opacity="1" d="M 244.5 296 L 245.5 298 L 244.5 296 Z " /><path fill="rgb(204,244,216)" stroke="rgb(204,244,216)" stroke-width="1" opacity="1" d="M 247.5 300 L 248.5 302 L 247.5 300 Z " /><path fill="rgb(204,244,216)" stroke="rgb(204,244,216)" stroke-width="1" opacity="1" d="M 249.5 303 L 250.5 305 L 249.5 303 Z " /><path fill="rgb(204,244,216)" stroke="rgb(204,244,216)" stroke-width="1" opacity="1" d="M 251.5 306 L 252.5 308 L 251.5 306 Z " /><path fill="rgb(204,244,216)" stroke="rgb(204,244,216)" stroke-width="1" opacity="1" d="M 253.5 309 L 254.5 311 L 253.5 309 Z " /><path fill="rgb(204,244,216)" stroke="rgb(204,244,216)" stroke-width="1" opacity="1" d="M 255.5 312 L 256.5 314 L 255.5 312 Z " /><path fill="rgb(204,244,216)" stroke="rgb(204,244,216)" stroke-width="1" opacity="1" d="M 257.5 315 L 258.5 317 L 257.5 315 Z " /><path fill="rgb(204,244,216)" stroke="rgb(204,244,216)" stroke-width="1" opacity="1" d="M 259.5 318 L 260.5 320 L 259.5 318 Z " /><path fill="rgb(204,244,216)" stroke="rgb(204,244,216)" stroke-width="1" opacity="1" d="M 261.5 321 L 262.5 323 L 261.5 321 Z " /><path fill="rgb(204,244,216)" stroke="rgb(204,244,216)" stroke-width="1" opacity="1" d="M 264.5 325 L 265.5 327 L 264.5 325 Z " /><path fill="rgb(204,244,216)" stroke="rgb(204,244,216)" stroke-width="1" opacity="1" d="M 266.5 328 L 267.5 330 L 266.5 328 Z " /><path fill="rgb(204,244,216)" stroke="rgb(204,244,216)" stroke-width="1" opacity="1" d="M 268.5 331 L 269.5 333 L 268.5 331 Z " /><path fill="rgb(204,244,216)" stroke="rgb(204,244,216)" stroke-width="1" opacity="1" d="M 270.5 334 L 271.5 336 L 270.5 334 Z " /><path fill="rgb(204,244,216)" stroke="rgb(204,244,216)" stroke-width="1" opacity="1" d="M 272.5 337 L 273.5 339 L 272.5 337 Z " /><path fill="rgb(204,244,216)" stroke="rgb(204,244,216)" stroke-width="1" opacity="1" d="M 274.5 340 L 275.5 342 L 274.5 340 Z " /><path fill="rgb(204,244,216)" stroke="rgb(204,244,216)" stroke-width="1" opacity="1" d="M 276.5 343 L 277.5 345 L 276.5 343 Z " /><path fill="rgb(204,244,216)" stroke="rgb(204,244,216)" stroke-width="1" opacity="1" d="M 279.5 347 L 280.5 349 L 279.5 347 Z " /><path fill="rgb(204,244,216)" stroke="rgb(204,244,216)" stroke-width="1" opacity="1" d="M 281.5 350 L 282.5 352 L 281.5 350 Z " /><path fill="rgb(204,244,216)" stroke="rgb(204,244,216)" stroke-width="1" opacity="1" d="M 283.5 353 L 284.5 355 L 283.5 353 Z " /><path fill="rgb(204,244,216)" stroke="rgb(204,244,216)" stroke-width="1" opacity="1" d="M 285.5 356 L 286.5 358 L 285.5 356 Z " /><path fill="rgb(204,244,216)" stroke="rgb(204,244,216)" stroke-width="1" opacity="1" d="M 287.5 359 L 288.5 361 L 287.5 359 Z " /><path fill="rgb(204,244,216)" stroke="rgb(204,244,216)" stroke-width="1" opacity="1" d="M 289.5 362 L 290.5 364 L 289.5 362 Z " /><path fill="rgb(204,244,216)" stroke="rgb(204,244,216)" stroke-width="1" opacity="1" d="M 291.5 365 L 292.5 367 L 291.5 365 Z " /><path fill="rgb(204,244,216)" stroke="rgb(204,244,216)" stroke-width="1" opacity="1" d="M 293.5 368 L 294.5 370 L 293.5 368 Z " /><path fill="rgb(204,244,216)" stroke="rgb(204,244,216)" stroke-width="1" opacity="1" d="M 296.5 372 L 297.5 373 L 384 373.5 L 297.5 374 L 296.5 372 Z " /><path fill="rgb(255,255,255)" stroke="rgb(255,255,255)" stroke-width="1" opacity="1" d="M 129 140 L 215.5 140 L 216 141.5 L 285 241.5 L 297 261 L 299 260.5 L 299 140 L 384 140 L 384 373 L 297.5 373 L 217 255.5 L 216 252 L 214 252.5 L 214 373 L 129 373 L 129 140 Z " /></svg>