<?xml version="1.0" standalone="no"?>
<!DOCTYPE svg PUBLIC "-//W3C//DTD SVG 20010904//EN"
 "http://www.w3.org/TR/2001/REC-SVG-20010904/DTD/svg10.dtd">
<svg version="1.0" xmlns="http://www.w3.org/2000/svg"
 width="225.000000pt" height="225.000000pt" viewBox="0 0 225.000000 225.000000"
 preserveAspectRatio="xMidYMid meet">

<g transform="translate(0.000000,225.000000) scale(0.100000,-0.100000)"
fill="#000000" stroke="none">
<path d="M1027 1880 c-112 -29 -213 -113 -268 -225 -32 -66 -34 -75 -34 -180
0 -101 2 -115 29 -170 60 -122 193 -218 322 -231 168 -18 347 82 420 233 37
77 45 213 19 294 -40 121 -130 217 -242 259 -65 25 -187 34 -246 20z"/>
<path d="M663 1091 c-243 -129 -387 -346 -418 -629 -12 -113 -104 -102 880
-102 999 0 895 -15 876 128 -35 272 -185 488 -423 608 -37 19 -73 34 -79 34
-6 0 -31 -18 -55 -39 -169 -148 -469 -148 -638 0 -24 21 -50 39 -58 39 -7 0
-46 -18 -85 -39z"/>
</g>
</svg>
