<svg width="554" height="129" version="1.1" xmlns="http://www.w3.org/2000/svg" desc="Created with imagetracer.js version 1.2.6" ><path fill="rgb(233,233,232)" stroke="rgb(233,233,232)" stroke-width="1" opacity="0.10588235294117647" d="M 52.5 14 L 71.5 14 L 75.5 15 Q 87.9 18.1 96 25.5 L 97 32.5 L 87.5 42 L 80.5 43 Q 72.6 34.9 54.5 37 Q 45.1 40.6 40 48.5 L 35 61.5 L 35 69.5 Q 37.7 71.8 37 77.5 L 40 82.5 L 47.5 90 L 58.5 95 L 65.5 95 L 73.5 93 L 77 90.5 L 77 78 L 63.5 78 L 61 75.5 L 61 59 L 66.5 57 L 93.5 57 L 99 60.5 L 99 102.5 L 95.5 107 L 84.5 113 L 74.5 116 L 56.5 117 L 42.5 114 L 32 109 Q 33.1 106.3 30.5 107 Q 19.8 98.8 14 85.5 L 11 75.5 L 11 55.5 Q 14.4 39.9 23.5 30 Q 25.8 30.8 25 28.5 Q 35.4 17.9 52.5 14 Z M 58 15 L 44 18 L 28 28 Q 20 36 15 47 L 12 58 L 12 70 L 12 72 Q 14 87 22 97 L 38 110 L 48 114 L 59 116 Q 82 116 96 105 L 98 102 L 98 62 L 95 59 L 65 59 L 62 62 L 62 74 L 63 76 Q 68 78 78 77 L 79 79 L 79 91 L 73 95 L 68 96 L 58 96 L 47 91 Q 36 85 34 71 L 34 60 L 39 48 Q 45 39 56 35 L 68 35 L 82 42 L 87 41 L 96 32 L 96 29 L 89 22 L 78 17 L 67 16 L 66 15 L 58 15 Z " /><path fill="rgb(233,233,232)" stroke="rgb(233,233,232)" stroke-width="1" opacity="0.10588235294117647" d="M 379.5 14 L 399.5 14 L 403.5 15 Q 418.6 19.4 428 29.5 Q 436.2 37.8 440 50.5 L 441 55.5 L 441 74.5 Q 437.3 93.3 425.5 104 Q 416.3 112.3 402.5 116 L 384.5 117 L 369.5 114 Q 358.2 108.8 350 100.5 Q 341.7 91.3 338 77.5 L 338 53.5 Q 342.7 35.2 355.5 25 Q 365.2 17.2 379.5 14 Z M 385 15 L 369 19 L 356 27 Q 343 37 339 56 L 339 76 L 340 80 Q 344 91 351 100 L 367 111 L 387 116 L 393 116 L 407 113 Q 417 109 425 103 Q 437 92 440 73 L 440 57 L 438 49 L 427 31 Q 414 15 385 15 Z " /><path fill="rgb(233,233,232)" stroke="rgb(233,233,232)" stroke-width="1" opacity="0.10588235294117647" d="M 144.5 16 L 165.5 16 L 168 17 L 179 44.5 L 179 47.5 L 182 52.5 L 182 55.5 L 184 57.5 L 184 61.5 L 186 63.5 L 186 66.5 L 189 71.5 L 189 74.5 L 196 90.5 L 196 93.5 L 198 95.5 L 198 98.5 L 202 107.5 L 202 112.5 L 199.5 115 L 181.5 115 L 177 111.5 L 177 108.5 L 170.5 94 L 137.5 94 L 137 95.5 L 131 111.5 L 128.5 114 L 126.5 115 L 109.5 115 L 107 114 L 108 103.5 L 113 93.5 L 120 74.5 L 120 71.5 L 137 29.5 L 139 20.5 L 142.5 17 L 144.5 16 Z M 146 17 L 144 18 L 139 26 L 108 109 Q 107 113 109 113 L 128 113 L 130 111 L 135 95 L 138 92 L 171 92 L 174 97 L 179 112 L 184 114 L 185 113 L 200 113 L 201 112 L 197 98 L 167 18 L 165 17 L 146 17 Z " /><path fill="rgb(233,233,232)" stroke="rgb(233,233,232)" stroke-width="1" opacity="0.10588235294117647" d="M 194.5 16 L 211.5 16 L 217 20.5 L 217 23.5 L 220 28.5 L 224 43.5 L 229 54.5 L 229 57.5 L 239.5 86 L 241 84.5 L 248 60.5 L 250 58.5 Q 250.7 49.7 255 44.5 L 260 26.5 L 265.5 17 L 267.5 16 L 284.5 16 L 288 18.5 L 288 23.5 Q 285.4 24.9 286 29.5 L 283 34.5 L 272 66.5 L 253 114 L 250.5 115 L 228.5 115 L 225 112.5 L 220 99.5 L 220 96.5 L 215 86.5 L 215 83.5 L 213 81.5 L 208 68.5 L 208 65.5 L 191 23.5 L 191 18.5 L 194.5 16 Z M 196 17 L 193 18 L 192 21 L 227 113 L 231 114 L 233 113 L 251 113 L 257 102 L 287 20 L 284 17 Q 273 15 267 18 L 261 29 L 255 49 L 240 90 L 215 21 L 210 17 L 196 17 Z " /><path fill="rgb(233,233,232)" stroke="rgb(233,233,232)" stroke-width="1" opacity="0.10588235294117647" d="M 303.5 16 L 320.5 16 L 324 19.5 L 323 111.5 L 322 114 L 319.5 115 L 303.5 115 L 300 112.5 L 300 19.5 L 303.5 16 Z M 305 17 L 301 21 L 301 51 L 301 53 L 301 111 L 302 112 L 303 113 L 320 113 L 322 111 L 322 20 L 320 17 L 305 17 Z " /><path fill="rgb(233,233,232)" stroke="rgb(233,233,232)" stroke-width="1" opacity="0.10588235294117647" d="M 456.5 16 L 475.5 16 L 479 19.5 L 514.5 73 L 515 58.5 L 516 57.5 L 516 19 L 538.5 19 L 540 20.5 L 540 31.5 L 539 32.5 L 539 111.5 L 535.5 115 L 517.5 115 L 514 111.5 L 476.5 56 L 476 111.5 L 475 114 L 472.5 115 L 456.5 115 L 454 114 L 453 111.5 L 453 31.5 L 454 30.5 L 454 18.5 L 456.5 16 Z M 458 17 L 455 20 L 455 32 L 454 33 L 454 111 L 459 114 L 460 113 L 474 113 L 475 111 L 476 53 L 515 111 L 518 113 L 536 113 L 538 111 L 538 20 L 519 20 L 517 22 L 517 77 L 515 77 L 478 21 L 474 17 L 458 17 Z " /><path fill="rgb(233,233,232)" stroke="rgb(233,233,232)" stroke-width="1" opacity="0.10588235294117647" d="M 387.5 34 L 398.5 35 Q 407.9 38.6 413 46.5 L 417 54.5 L 418 71.5 L 415 80.5 L 404.5 92 Q 397.5 98 382.5 96 Q 372.6 92.9 367 85.5 L 361 71.5 L 361 59.5 Q 363.9 45.9 373.5 39 L 378.5 36 L 387.5 34 Z M 389 35 L 375 40 Q 364 47 362 62 L 362 71 L 368 85 Q 374 92 384 95 Q 397 97 404 91 L 414 80 L 417 69 L 416 56 L 412 48 Q 405 37 389 35 Z " /><path fill="rgb(233,233,232)" stroke="rgb(233,233,232)" stroke-width="1" opacity="0.10588235294117647" d="M 154.5 41 L 161 56.5 L 166 75 L 143.5 75 L 143 71.5 L 154.5 41 Z M 155 44 L 145 72 L 145 73 L 165 73 L 163 71 L 163 68 L 155 44 Z " /><path fill="rgb(0,0,0)" stroke="rgb(0,0,0)" stroke-width="1" opacity="0" d="M 0 0 L 553.5 0 L 554 0.5 L 554 129 L 0.5 129 L 0 128.5 L 0 0 Z M 53 14 Q 35 18 25 29 Q 26 31 24 30 Q 14 40 11 56 L 11 76 L 14 86 Q 20 99 31 107 Q 33 106 32 109 L 43 114 L 57 117 L 75 116 L 85 113 L 96 107 L 99 103 L 99 61 L 94 57 L 67 57 L 61 59 L 61 76 L 64 78 L 77 78 L 77 91 L 74 93 L 66 95 L 59 95 L 48 90 L 40 83 L 37 78 Q 38 72 35 70 L 35 62 L 40 49 Q 45 41 55 37 Q 73 35 81 43 L 88 42 L 97 33 L 96 26 Q 88 18 76 15 L 72 14 L 53 14 Z M 380 14 Q 365 17 356 25 Q 343 35 338 54 L 338 78 Q 342 91 350 101 Q 358 109 370 114 L 385 117 L 403 116 Q 416 112 426 104 Q 437 93 441 75 L 441 56 L 440 51 Q 436 38 428 30 Q 419 19 404 15 L 400 14 L 380 14 Z M 145 16 L 143 17 L 139 21 L 137 30 L 120 72 L 120 75 L 113 94 L 108 104 L 107 114 L 110 115 L 127 115 L 129 114 L 131 112 L 137 96 L 138 94 L 171 94 L 177 109 L 177 112 L 182 115 L 200 115 L 202 113 L 202 108 L 198 99 L 198 96 L 196 94 L 196 91 L 189 75 L 189 72 L 186 67 L 186 64 L 184 62 L 184 58 L 182 56 L 182 53 L 179 48 L 179 45 L 168 17 L 166 16 L 145 16 Z M 195 16 L 191 19 L 191 24 L 208 66 L 208 69 L 213 82 L 215 84 L 215 87 L 220 97 L 220 100 L 225 113 L 229 115 L 251 115 L 253 114 L 272 67 L 283 35 L 286 30 Q 285 25 288 24 L 288 19 L 285 16 L 268 16 L 266 17 L 260 27 L 255 45 Q 251 50 250 59 L 248 61 L 241 85 L 240 86 L 229 58 L 229 55 L 224 44 L 220 29 L 217 24 L 217 21 L 212 16 L 195 16 Z M 304 16 L 300 20 L 300 113 L 304 115 L 320 115 L 322 114 L 323 112 L 324 20 L 321 16 L 304 16 Z M 457 16 L 454 19 L 454 31 L 453 32 L 453 112 L 454 114 L 457 115 L 473 115 L 475 114 L 476 112 L 477 56 L 514 112 L 518 115 L 536 115 L 539 112 L 539 33 L 540 32 L 540 21 L 539 19 L 516 19 L 516 58 L 515 59 L 515 73 L 479 20 L 476 16 L 457 16 Z " /><path fill="rgb(0,0,0)" stroke="rgb(0,0,0)" stroke-width="1" opacity="0" d="M 388.5 35 Q 405 36.5 412 47.5 L 416 55.5 L 417 68.5 L 414 79.5 L 403.5 91 Q 397.2 96.7 383.5 95 Q 373.6 91.9 368 84.5 L 362 70.5 L 362 61.5 Q 364.5 47 374.5 40 L 388.5 35 Z " /><path fill="rgb(0,0,0)" stroke="rgb(0,0,0)" stroke-width="1" opacity="0" d="M 154.5 44 L 163 67.5 L 163 70.5 L 165 72.5 L 144.5 73 L 145 71.5 L 154.5 44 Z " /><path fill="rgb(48,51,41)" stroke="rgb(48,51,41)" stroke-width="1" opacity="0.9490196078431372" d="M 57.5 15 L 65.5 15 L 66.5 16 L 77.5 17 L 88.5 22 L 96 28.5 L 96 31.5 L 86.5 41 L 81.5 42 L 67.5 35 L 55.5 35 Q 44.8 38.8 39 47.5 L 34 59.5 L 34 70.5 Q 36.2 84.8 46.5 91 L 57.5 96 L 67.5 96 L 72.5 95 L 79 90.5 L 79 78.5 L 77.5 77 Q 68.3 77.8 63 76 L 62 73.5 L 62 61.5 L 64.5 59 L 94.5 59 L 98 61.5 L 98 101.5 L 95.5 105 Q 82 115.5 58.5 116 L 47.5 114 L 37.5 110 L 22 96.5 Q 14.1 86.9 12 71.5 L 12 69.5 L 12 57.5 L 15 46.5 Q 19.5 35.5 27.5 28 L 43.5 18 L 57.5 15 Z " /><path fill="rgb(48,51,41)" stroke="rgb(48,51,41)" stroke-width="1" opacity="0.9490196078431372" d="M 384.5 15 Q 413.8 14.7 427 30.5 L 438 48.5 L 440 56.5 L 440 72.5 Q 436.6 92.1 424.5 103 Q 417 109.5 406.5 113 L 392.5 116 L 386.5 116 L 366.5 111 L 351 99.5 Q 343.5 91.5 340 79.5 L 339 75.5 L 339 55.5 Q 343.1 37.1 355.5 27 L 368.5 19 L 384.5 15 Z M 388 34 L 379 36 L 374 39 Q 364 46 361 60 L 361 72 L 367 86 Q 373 93 383 96 Q 398 98 405 92 L 415 81 L 418 72 L 417 55 L 413 47 Q 408 39 399 35 L 388 34 Z " /><path fill="rgb(48,51,41)" stroke="rgb(48,51,41)" stroke-width="1" opacity="0.9490196078431372" d="M 145.5 17 L 164.5 17 L 167 18 L 197 97.5 L 201 111.5 L 199.5 113 L 184.5 113 L 183.5 114 L 179 111.5 L 174 96.5 L 170.5 92 L 137.5 92 L 135 94.5 L 130 110.5 L 127.5 113 L 108.5 113 Q 107.5 113 108 108.5 L 139 25.5 L 143.5 18 L 145.5 17 Z M 155 41 L 143 72 L 144 75 L 166 75 L 161 57 L 155 41 Z " /><path fill="rgb(48,51,41)" stroke="rgb(48,51,41)" stroke-width="1" opacity="0.9490196078431372" d="M 195.5 17 L 209.5 17 L 215 20.5 L 239.5 90 L 255 48.5 L 261 28.5 L 266.5 18 Q 272.8 15.3 283.5 17 L 287 19.5 L 257 101.5 L 250.5 113 L 232.5 113 L 230.5 114 L 227 113 L 192 20.5 L 193 18 L 195.5 17 Z " /><path fill="rgb(48,51,41)" stroke="rgb(48,51,41)" stroke-width="1" opacity="0.9490196078431372" d="M 304.5 17 L 319.5 17 L 322 19.5 L 322 110.5 L 319.5 113 L 302.5 113 L 302 111.5 L 301 110.5 L 301 52.5 L 301 50.5 L 301 20.5 L 304.5 17 Z " /><path fill="rgb(48,51,41)" stroke="rgb(48,51,41)" stroke-width="1" opacity="0.9490196078431372" d="M 457.5 17 L 473.5 17 L 478 20.5 L 515 77 L 517 76.5 L 517 21.5 L 518.5 20 L 538 20 L 538 110.5 L 535.5 113 L 517.5 113 L 515 110.5 L 475.5 53 L 475 110.5 L 474 113 L 459.5 113 L 458.5 114 L 454 110.5 L 454 32.5 L 455 31.5 L 455 19.5 L 457.5 17 Z " /></svg>